G04 #@! TF.FileFunction,Legend,Top*
%FSLAX46Y46*%
G04 Gerber Fmt 4.6, Leading zero omitted, Abs format (unit mm)*
G04 Created by KiCad (PCBNEW 4.0.7) date Tuesday, 26 September 2017 'PMt' 23:25:46*
%MOMM*%
%LPD*%
G01*
G04 APERTURE LIST*
%ADD10C,0.100000*%
%ADD11C,0.200000*%
%ADD12C,0.300000*%
%ADD13C,0.150000*%
%ADD14C,0.120000*%
G04 APERTURE END LIST*
D10*
D11*
X150425000Y-106350000D02*
G75*
G03X150425000Y-106350000I-100000J0D01*
G01*
X147250000Y-108525000D02*
X147250000Y-108000000D01*
X147225000Y-109275000D02*
X147225000Y-109775000D01*
X146775000Y-109275000D02*
X147725000Y-109275000D01*
X146775000Y-108575000D02*
X146800000Y-108550000D01*
X147250000Y-109275000D02*
X146775000Y-108575000D01*
X147725000Y-108550000D02*
X147250000Y-109275000D01*
X146750000Y-108525000D02*
X147725000Y-108550000D01*
D12*
X122150000Y-100478571D02*
X122435714Y-100478571D01*
X122578572Y-100550000D01*
X122721429Y-100692857D01*
X122792857Y-100978571D01*
X122792857Y-101478571D01*
X122721429Y-101764286D01*
X122578572Y-101907143D01*
X122435714Y-101978571D01*
X122150000Y-101978571D01*
X122007143Y-101907143D01*
X121864286Y-101764286D01*
X121792857Y-101478571D01*
X121792857Y-100978571D01*
X121864286Y-100692857D01*
X122007143Y-100550000D01*
X122150000Y-100478571D01*
X123435715Y-100478571D02*
X123435715Y-101692857D01*
X123507143Y-101835714D01*
X123578572Y-101907143D01*
X123721429Y-101978571D01*
X124007143Y-101978571D01*
X124150001Y-101907143D01*
X124221429Y-101835714D01*
X124292858Y-101692857D01*
X124292858Y-100478571D01*
X124792858Y-100478571D02*
X125650001Y-100478571D01*
X125221430Y-101978571D02*
X125221430Y-100478571D01*
X165814286Y-102128571D02*
X165814286Y-100628571D01*
X166528572Y-102128571D02*
X166528572Y-100628571D01*
X167385715Y-102128571D01*
X167385715Y-100628571D01*
X136221430Y-115954762D02*
X135507144Y-115954762D01*
X135507144Y-113954762D01*
X136721430Y-114907143D02*
X137221430Y-114907143D01*
X137435716Y-115954762D02*
X136721430Y-115954762D01*
X136721430Y-113954762D01*
X137435716Y-113954762D01*
X138078573Y-115954762D02*
X138078573Y-113954762D01*
X138435716Y-113954762D01*
X138650001Y-114050000D01*
X138792859Y-114240476D01*
X138864287Y-114430952D01*
X138935716Y-114811905D01*
X138935716Y-115097619D01*
X138864287Y-115478571D01*
X138792859Y-115669048D01*
X138650001Y-115859524D01*
X138435716Y-115954762D01*
X138078573Y-115954762D01*
X141364287Y-115954762D02*
X141364287Y-113954762D01*
X141364287Y-115859524D02*
X141221430Y-115954762D01*
X140935716Y-115954762D01*
X140792858Y-115859524D01*
X140721430Y-115764286D01*
X140650001Y-115573810D01*
X140650001Y-115002381D01*
X140721430Y-114811905D01*
X140792858Y-114716667D01*
X140935716Y-114621429D01*
X141221430Y-114621429D01*
X141364287Y-114716667D01*
X142078573Y-115954762D02*
X142078573Y-114621429D01*
X142078573Y-113954762D02*
X142007144Y-114050000D01*
X142078573Y-114145238D01*
X142150001Y-114050000D01*
X142078573Y-113954762D01*
X142078573Y-114145238D01*
X142792859Y-115954762D02*
X142792859Y-114621429D01*
X142792859Y-114811905D02*
X142864287Y-114716667D01*
X143007145Y-114621429D01*
X143221430Y-114621429D01*
X143364287Y-114716667D01*
X143435716Y-114907143D01*
X143435716Y-115954762D01*
X143435716Y-114907143D02*
X143507145Y-114716667D01*
X143650002Y-114621429D01*
X143864287Y-114621429D01*
X144007145Y-114716667D01*
X144078573Y-114907143D01*
X144078573Y-115954762D01*
X144792859Y-115954762D02*
X144792859Y-114621429D01*
X144792859Y-114811905D02*
X144864287Y-114716667D01*
X145007145Y-114621429D01*
X145221430Y-114621429D01*
X145364287Y-114716667D01*
X145435716Y-114907143D01*
X145435716Y-115954762D01*
X145435716Y-114907143D02*
X145507145Y-114716667D01*
X145650002Y-114621429D01*
X145864287Y-114621429D01*
X146007145Y-114716667D01*
X146078573Y-114907143D01*
X146078573Y-115954762D01*
X147364287Y-115859524D02*
X147221430Y-115954762D01*
X146935716Y-115954762D01*
X146792859Y-115859524D01*
X146721430Y-115669048D01*
X146721430Y-114907143D01*
X146792859Y-114716667D01*
X146935716Y-114621429D01*
X147221430Y-114621429D01*
X147364287Y-114716667D01*
X147435716Y-114907143D01*
X147435716Y-115097619D01*
X146721430Y-115288095D01*
X148078573Y-115954762D02*
X148078573Y-114621429D01*
X148078573Y-115002381D02*
X148150001Y-114811905D01*
X148221430Y-114716667D01*
X148364287Y-114621429D01*
X148507144Y-114621429D01*
X150007144Y-114621429D02*
X150364287Y-115954762D01*
X150721429Y-114621429D01*
X152721429Y-113954762D02*
X152864286Y-113954762D01*
X153007143Y-114050000D01*
X153078572Y-114145238D01*
X153150001Y-114335714D01*
X153221429Y-114716667D01*
X153221429Y-115192857D01*
X153150001Y-115573810D01*
X153078572Y-115764286D01*
X153007143Y-115859524D01*
X152864286Y-115954762D01*
X152721429Y-115954762D01*
X152578572Y-115859524D01*
X152507143Y-115764286D01*
X152435715Y-115573810D01*
X152364286Y-115192857D01*
X152364286Y-114716667D01*
X152435715Y-114335714D01*
X152507143Y-114145238D01*
X152578572Y-114050000D01*
X152721429Y-113954762D01*
X153864286Y-115764286D02*
X153935714Y-115859524D01*
X153864286Y-115954762D01*
X153792857Y-115859524D01*
X153864286Y-115764286D01*
X153864286Y-115954762D01*
X154507143Y-114145238D02*
X154578572Y-114050000D01*
X154721429Y-113954762D01*
X155078572Y-113954762D01*
X155221429Y-114050000D01*
X155292858Y-114145238D01*
X155364286Y-114335714D01*
X155364286Y-114526190D01*
X155292858Y-114811905D01*
X154435715Y-115954762D01*
X155364286Y-115954762D01*
X130114288Y-119254762D02*
X130114288Y-117254762D01*
X130614288Y-118683333D01*
X131114288Y-117254762D01*
X131114288Y-119254762D01*
X133400002Y-117254762D02*
X133400002Y-118683333D01*
X133328574Y-118969048D01*
X133185717Y-119159524D01*
X132971431Y-119254762D01*
X132828574Y-119254762D01*
X135542859Y-117254762D02*
X135828573Y-117254762D01*
X135971431Y-117350000D01*
X136114288Y-117540476D01*
X136185716Y-117921429D01*
X136185716Y-118588095D01*
X136114288Y-118969048D01*
X135971431Y-119159524D01*
X135828573Y-119254762D01*
X135542859Y-119254762D01*
X135400002Y-119159524D01*
X135257145Y-118969048D01*
X135185716Y-118588095D01*
X135185716Y-117921429D01*
X135257145Y-117540476D01*
X135400002Y-117350000D01*
X135542859Y-117254762D01*
X137042860Y-119254762D02*
X136900002Y-119159524D01*
X136828574Y-118969048D01*
X136828574Y-117254762D01*
X138257145Y-119254762D02*
X138257145Y-117254762D01*
X138257145Y-119159524D02*
X138114288Y-119254762D01*
X137828574Y-119254762D01*
X137685716Y-119159524D01*
X137614288Y-119064286D01*
X137542859Y-118873810D01*
X137542859Y-118302381D01*
X137614288Y-118111905D01*
X137685716Y-118016667D01*
X137828574Y-117921429D01*
X138114288Y-117921429D01*
X138257145Y-118016667D01*
X138757145Y-117921429D02*
X139328574Y-117921429D01*
X138971431Y-119254762D02*
X138971431Y-117540476D01*
X139042859Y-117350000D01*
X139185717Y-117254762D01*
X139328574Y-117254762D01*
X139828574Y-119254762D02*
X139828574Y-117921429D01*
X139828574Y-117254762D02*
X139757145Y-117350000D01*
X139828574Y-117445238D01*
X139900002Y-117350000D01*
X139828574Y-117254762D01*
X139828574Y-117445238D01*
X141114288Y-119159524D02*
X140971431Y-119254762D01*
X140685717Y-119254762D01*
X140542860Y-119159524D01*
X140471431Y-118969048D01*
X140471431Y-118207143D01*
X140542860Y-118016667D01*
X140685717Y-117921429D01*
X140971431Y-117921429D01*
X141114288Y-118016667D01*
X141185717Y-118207143D01*
X141185717Y-118397619D01*
X140471431Y-118588095D01*
X142042860Y-119254762D02*
X141900002Y-119159524D01*
X141828574Y-118969048D01*
X141828574Y-117254762D01*
X143257145Y-119254762D02*
X143257145Y-117254762D01*
X143257145Y-119159524D02*
X143114288Y-119254762D01*
X142828574Y-119254762D01*
X142685716Y-119159524D01*
X142614288Y-119064286D01*
X142542859Y-118873810D01*
X142542859Y-118302381D01*
X142614288Y-118111905D01*
X142685716Y-118016667D01*
X142828574Y-117921429D01*
X143114288Y-117921429D01*
X143257145Y-118016667D01*
X146185716Y-117445238D02*
X146257145Y-117350000D01*
X146400002Y-117254762D01*
X146757145Y-117254762D01*
X146900002Y-117350000D01*
X146971431Y-117445238D01*
X147042859Y-117635714D01*
X147042859Y-117826190D01*
X146971431Y-118111905D01*
X146114288Y-119254762D01*
X147042859Y-119254762D01*
X147971430Y-117254762D02*
X148114287Y-117254762D01*
X148257144Y-117350000D01*
X148328573Y-117445238D01*
X148400002Y-117635714D01*
X148471430Y-118016667D01*
X148471430Y-118492857D01*
X148400002Y-118873810D01*
X148328573Y-119064286D01*
X148257144Y-119159524D01*
X148114287Y-119254762D01*
X147971430Y-119254762D01*
X147828573Y-119159524D01*
X147757144Y-119064286D01*
X147685716Y-118873810D01*
X147614287Y-118492857D01*
X147614287Y-118016667D01*
X147685716Y-117635714D01*
X147757144Y-117445238D01*
X147828573Y-117350000D01*
X147971430Y-117254762D01*
X149900001Y-119254762D02*
X149042858Y-119254762D01*
X149471430Y-119254762D02*
X149471430Y-117254762D01*
X149328573Y-117540476D01*
X149185715Y-117730952D01*
X149042858Y-117826190D01*
X150400001Y-117254762D02*
X151400001Y-117254762D01*
X150757144Y-119254762D01*
X151971429Y-118492857D02*
X153114286Y-118492857D01*
X154114286Y-117254762D02*
X154257143Y-117254762D01*
X154400000Y-117350000D01*
X154471429Y-117445238D01*
X154542858Y-117635714D01*
X154614286Y-118016667D01*
X154614286Y-118492857D01*
X154542858Y-118873810D01*
X154471429Y-119064286D01*
X154400000Y-119159524D01*
X154257143Y-119254762D01*
X154114286Y-119254762D01*
X153971429Y-119159524D01*
X153900000Y-119064286D01*
X153828572Y-118873810D01*
X153757143Y-118492857D01*
X153757143Y-118016667D01*
X153828572Y-117635714D01*
X153900000Y-117445238D01*
X153971429Y-117350000D01*
X154114286Y-117254762D01*
X155328571Y-119254762D02*
X155614286Y-119254762D01*
X155757143Y-119159524D01*
X155828571Y-119064286D01*
X155971429Y-118778571D01*
X156042857Y-118397619D01*
X156042857Y-117635714D01*
X155971429Y-117445238D01*
X155900000Y-117350000D01*
X155757143Y-117254762D01*
X155471429Y-117254762D01*
X155328571Y-117350000D01*
X155257143Y-117445238D01*
X155185714Y-117635714D01*
X155185714Y-118111905D01*
X155257143Y-118302381D01*
X155328571Y-118397619D01*
X155471429Y-118492857D01*
X155757143Y-118492857D01*
X155900000Y-118397619D01*
X155971429Y-118302381D01*
X156042857Y-118111905D01*
X156685714Y-118492857D02*
X157828571Y-118492857D01*
X158471428Y-117445238D02*
X158542857Y-117350000D01*
X158685714Y-117254762D01*
X159042857Y-117254762D01*
X159185714Y-117350000D01*
X159257143Y-117445238D01*
X159328571Y-117635714D01*
X159328571Y-117826190D01*
X159257143Y-118111905D01*
X158400000Y-119254762D01*
X159328571Y-119254762D01*
X160614285Y-117254762D02*
X160328571Y-117254762D01*
X160185714Y-117350000D01*
X160114285Y-117445238D01*
X159971428Y-117730952D01*
X159899999Y-118111905D01*
X159899999Y-118873810D01*
X159971428Y-119064286D01*
X160042856Y-119159524D01*
X160185714Y-119254762D01*
X160471428Y-119254762D01*
X160614285Y-119159524D01*
X160685714Y-119064286D01*
X160757142Y-118873810D01*
X160757142Y-118397619D01*
X160685714Y-118207143D01*
X160614285Y-118111905D01*
X160471428Y-118016667D01*
X160185714Y-118016667D01*
X160042856Y-118111905D01*
X159971428Y-118207143D01*
X159899999Y-118397619D01*
X132771429Y-98407143D02*
X132985715Y-98478571D01*
X133342858Y-98478571D01*
X133485715Y-98407143D01*
X133557144Y-98335714D01*
X133628572Y-98192857D01*
X133628572Y-98050000D01*
X133557144Y-97907143D01*
X133485715Y-97835714D01*
X133342858Y-97764286D01*
X133057144Y-97692857D01*
X132914286Y-97621429D01*
X132842858Y-97550000D01*
X132771429Y-97407143D01*
X132771429Y-97264286D01*
X132842858Y-97121429D01*
X132914286Y-97050000D01*
X133057144Y-96978571D01*
X133414286Y-96978571D01*
X133628572Y-97050000D01*
X142642857Y-97000000D02*
X142500000Y-96928571D01*
X142285714Y-96928571D01*
X142071429Y-97000000D01*
X141928571Y-97142857D01*
X141857143Y-97285714D01*
X141785714Y-97571429D01*
X141785714Y-97785714D01*
X141857143Y-98071429D01*
X141928571Y-98214286D01*
X142071429Y-98357143D01*
X142285714Y-98428571D01*
X142428571Y-98428571D01*
X142642857Y-98357143D01*
X142714286Y-98285714D01*
X142714286Y-97785714D01*
X142428571Y-97785714D01*
X125938095Y-94342857D02*
X127461905Y-94342857D01*
X126700000Y-95104762D02*
X126700000Y-93580952D01*
X162288095Y-101292857D02*
X163811905Y-101292857D01*
X163050000Y-102054762D02*
X163050000Y-100530952D01*
D13*
X155350000Y-106600000D02*
X154650000Y-106600000D01*
X154650000Y-105400000D02*
X155350000Y-105400000D01*
X147850000Y-104400000D02*
X147850000Y-105100000D01*
X146650000Y-105100000D02*
X146650000Y-104400000D01*
X155350000Y-105100000D02*
X154650000Y-105100000D01*
X154650000Y-103900000D02*
X155350000Y-103900000D01*
X155600000Y-113600000D02*
X154900000Y-113600000D01*
X154900000Y-112400000D02*
X155600000Y-112400000D01*
D14*
X146250000Y-111250000D02*
X148250000Y-111250000D01*
X148250000Y-111250000D02*
X148250000Y-107350000D01*
X146250000Y-111250000D02*
X146250000Y-107350000D01*
X142975000Y-103250000D02*
X142975000Y-101750000D01*
X142975000Y-101750000D02*
X141165000Y-101750000D01*
X141165000Y-101750000D02*
X141165000Y-96625000D01*
X132575000Y-103250000D02*
X132575000Y-101750000D01*
X132575000Y-101750000D02*
X134385000Y-101750000D01*
X134385000Y-101750000D02*
X134385000Y-100650000D01*
D13*
X147750000Y-112925000D02*
X146750000Y-112925000D01*
X146750000Y-111575000D02*
X147750000Y-111575000D01*
X150250000Y-103575000D02*
X151250000Y-103575000D01*
X151250000Y-104925000D02*
X150250000Y-104925000D01*
X150975000Y-106770000D02*
X150975000Y-106820000D01*
X155125000Y-106770000D02*
X155125000Y-106915000D01*
X155125000Y-111920000D02*
X155125000Y-111775000D01*
X150975000Y-111920000D02*
X150975000Y-111775000D01*
X150975000Y-106770000D02*
X155125000Y-106770000D01*
X150975000Y-111920000D02*
X155125000Y-111920000D01*
X150975000Y-106820000D02*
X149575000Y-106820000D01*
X157583334Y-106357143D02*
X157535715Y-106404762D01*
X157392858Y-106452381D01*
X157297620Y-106452381D01*
X157154762Y-106404762D01*
X157059524Y-106309524D01*
X157011905Y-106214286D01*
X156964286Y-106023810D01*
X156964286Y-105880952D01*
X157011905Y-105690476D01*
X157059524Y-105595238D01*
X157154762Y-105500000D01*
X157297620Y-105452381D01*
X157392858Y-105452381D01*
X157535715Y-105500000D01*
X157583334Y-105547619D01*
X158535715Y-106452381D02*
X157964286Y-106452381D01*
X158250000Y-106452381D02*
X158250000Y-105452381D01*
X158154762Y-105595238D01*
X158059524Y-105690476D01*
X157964286Y-105738095D01*
X144433334Y-105107143D02*
X144385715Y-105154762D01*
X144242858Y-105202381D01*
X144147620Y-105202381D01*
X144004762Y-105154762D01*
X143909524Y-105059524D01*
X143861905Y-104964286D01*
X143814286Y-104773810D01*
X143814286Y-104630952D01*
X143861905Y-104440476D01*
X143909524Y-104345238D01*
X144004762Y-104250000D01*
X144147620Y-104202381D01*
X144242858Y-104202381D01*
X144385715Y-104250000D01*
X144433334Y-104297619D01*
X144766667Y-104202381D02*
X145385715Y-104202381D01*
X145052381Y-104583333D01*
X145195239Y-104583333D01*
X145290477Y-104630952D01*
X145338096Y-104678571D01*
X145385715Y-104773810D01*
X145385715Y-105011905D01*
X145338096Y-105107143D01*
X145290477Y-105154762D01*
X145195239Y-105202381D01*
X144909524Y-105202381D01*
X144814286Y-105154762D01*
X144766667Y-105107143D01*
X157583334Y-104607143D02*
X157535715Y-104654762D01*
X157392858Y-104702381D01*
X157297620Y-104702381D01*
X157154762Y-104654762D01*
X157059524Y-104559524D01*
X157011905Y-104464286D01*
X156964286Y-104273810D01*
X156964286Y-104130952D01*
X157011905Y-103940476D01*
X157059524Y-103845238D01*
X157154762Y-103750000D01*
X157297620Y-103702381D01*
X157392858Y-103702381D01*
X157535715Y-103750000D01*
X157583334Y-103797619D01*
X157964286Y-103797619D02*
X158011905Y-103750000D01*
X158107143Y-103702381D01*
X158345239Y-103702381D01*
X158440477Y-103750000D01*
X158488096Y-103797619D01*
X158535715Y-103892857D01*
X158535715Y-103988095D01*
X158488096Y-104130952D01*
X157916667Y-104702381D01*
X158535715Y-104702381D01*
X157833334Y-113357143D02*
X157785715Y-113404762D01*
X157642858Y-113452381D01*
X157547620Y-113452381D01*
X157404762Y-113404762D01*
X157309524Y-113309524D01*
X157261905Y-113214286D01*
X157214286Y-113023810D01*
X157214286Y-112880952D01*
X157261905Y-112690476D01*
X157309524Y-112595238D01*
X157404762Y-112500000D01*
X157547620Y-112452381D01*
X157642858Y-112452381D01*
X157785715Y-112500000D01*
X157833334Y-112547619D01*
X158690477Y-112785714D02*
X158690477Y-113452381D01*
X158452381Y-112404762D02*
X158214286Y-113119048D01*
X158833334Y-113119048D01*
X143961905Y-109452381D02*
X143961905Y-108452381D01*
X144200000Y-108452381D01*
X144342858Y-108500000D01*
X144438096Y-108595238D01*
X144485715Y-108690476D01*
X144533334Y-108880952D01*
X144533334Y-109023810D01*
X144485715Y-109214286D01*
X144438096Y-109309524D01*
X144342858Y-109404762D01*
X144200000Y-109452381D01*
X143961905Y-109452381D01*
X145485715Y-109452381D02*
X144914286Y-109452381D01*
X145200000Y-109452381D02*
X145200000Y-108452381D01*
X145104762Y-108595238D01*
X145009524Y-108690476D01*
X144914286Y-108738095D01*
X131797619Y-104345238D02*
X131750000Y-104440476D01*
X131654762Y-104535714D01*
X131511905Y-104678571D01*
X131464286Y-104773810D01*
X131464286Y-104869048D01*
X131702381Y-104821429D02*
X131654762Y-104916667D01*
X131559524Y-105011905D01*
X131369048Y-105059524D01*
X131035714Y-105059524D01*
X130845238Y-105011905D01*
X130750000Y-104916667D01*
X130702381Y-104821429D01*
X130702381Y-104630952D01*
X130750000Y-104535714D01*
X130845238Y-104440476D01*
X131035714Y-104392857D01*
X131369048Y-104392857D01*
X131559524Y-104440476D01*
X131654762Y-104535714D01*
X131702381Y-104630952D01*
X131702381Y-104821429D01*
X131702381Y-103440476D02*
X131702381Y-104011905D01*
X131702381Y-103726191D02*
X130702381Y-103726191D01*
X130845238Y-103821429D01*
X130940476Y-103916667D01*
X130988095Y-104011905D01*
X149633334Y-112752381D02*
X149300000Y-112276190D01*
X149061905Y-112752381D02*
X149061905Y-111752381D01*
X149442858Y-111752381D01*
X149538096Y-111800000D01*
X149585715Y-111847619D01*
X149633334Y-111942857D01*
X149633334Y-112085714D01*
X149585715Y-112180952D01*
X149538096Y-112228571D01*
X149442858Y-112276190D01*
X149061905Y-112276190D01*
X150585715Y-112752381D02*
X150014286Y-112752381D01*
X150300000Y-112752381D02*
X150300000Y-111752381D01*
X150204762Y-111895238D01*
X150109524Y-111990476D01*
X150014286Y-112038095D01*
X150583334Y-102702381D02*
X150250000Y-102226190D01*
X150011905Y-102702381D02*
X150011905Y-101702381D01*
X150392858Y-101702381D01*
X150488096Y-101750000D01*
X150535715Y-101797619D01*
X150583334Y-101892857D01*
X150583334Y-102035714D01*
X150535715Y-102130952D01*
X150488096Y-102178571D01*
X150392858Y-102226190D01*
X150011905Y-102226190D01*
X150964286Y-101797619D02*
X151011905Y-101750000D01*
X151107143Y-101702381D01*
X151345239Y-101702381D01*
X151440477Y-101750000D01*
X151488096Y-101797619D01*
X151535715Y-101892857D01*
X151535715Y-101988095D01*
X151488096Y-102130952D01*
X150916667Y-102702381D01*
X151535715Y-102702381D01*
X149988095Y-112452381D02*
X149988095Y-113261905D01*
X150035714Y-113357143D01*
X150083333Y-113404762D01*
X150178571Y-113452381D01*
X150369048Y-113452381D01*
X150464286Y-113404762D01*
X150511905Y-113357143D01*
X150559524Y-113261905D01*
X150559524Y-112452381D01*
X151559524Y-113452381D02*
X150988095Y-113452381D01*
X151273809Y-113452381D02*
X151273809Y-112452381D01*
X151178571Y-112595238D01*
X151083333Y-112690476D01*
X150988095Y-112738095D01*
M02*
