G04 #@! TF.FileFunction,Legend,Bot*
%FSLAX46Y46*%
G04 Gerber Fmt 4.6, Leading zero omitted, Abs format (unit mm)*
G04 Created by KiCad (PCBNEW 4.0.7) date Tuesday, 26 September 2017 'PMt' 23:25:46*
%MOMM*%
%LPD*%
G01*
G04 APERTURE LIST*
%ADD10C,0.100000*%
%ADD11C,0.300000*%
%ADD12C,0.150000*%
G04 APERTURE END LIST*
D10*
D11*
X125938095Y-94342857D02*
X127461905Y-94342857D01*
X126700000Y-95104762D02*
X126700000Y-93580952D01*
X162288095Y-101292857D02*
X163811905Y-101292857D01*
X163050000Y-102054762D02*
X163050000Y-100530952D01*
D12*
X120900000Y-100060000D02*
X127970000Y-100060000D01*
X120900000Y-94980000D02*
X120900000Y-100060000D01*
X127970000Y-94980000D02*
X120900000Y-94980000D01*
X127970000Y-100060000D02*
X127970000Y-94980000D01*
X122350000Y-112050000D02*
X122350000Y-111050000D01*
X167350000Y-112050000D02*
X167350000Y-111050000D01*
X122350000Y-103050000D02*
X167350000Y-103050000D01*
X122350000Y-112050000D02*
X167350000Y-112050000D01*
X122350000Y-104050000D02*
X122350000Y-103050000D01*
X122350000Y-104050000D02*
X122350000Y-103050000D01*
X167350000Y-104050000D02*
X167350000Y-103050000D01*
X168850000Y-95040000D02*
X161780000Y-95040000D01*
X168850000Y-100120000D02*
X168850000Y-95040000D01*
X161780000Y-100120000D02*
X168850000Y-100120000D01*
X161780000Y-95040000D02*
X161780000Y-100120000D01*
X124898095Y-94162381D02*
X124898095Y-93162381D01*
X124517142Y-93162381D01*
X124421904Y-93210000D01*
X124374285Y-93257619D01*
X124326666Y-93352857D01*
X124326666Y-93495714D01*
X124374285Y-93590952D01*
X124421904Y-93638571D01*
X124517142Y-93686190D01*
X124898095Y-93686190D01*
X123945714Y-93257619D02*
X123898095Y-93210000D01*
X123802857Y-93162381D01*
X123564761Y-93162381D01*
X123469523Y-93210000D01*
X123421904Y-93257619D01*
X123374285Y-93352857D01*
X123374285Y-93448095D01*
X123421904Y-93590952D01*
X123993333Y-94162381D01*
X123374285Y-94162381D01*
X133645238Y-106102381D02*
X133978572Y-105626190D01*
X134216667Y-106102381D02*
X134216667Y-105102381D01*
X133835714Y-105102381D01*
X133740476Y-105150000D01*
X133692857Y-105197619D01*
X133645238Y-105292857D01*
X133645238Y-105435714D01*
X133692857Y-105530952D01*
X133740476Y-105578571D01*
X133835714Y-105626190D01*
X134216667Y-105626190D01*
X133359524Y-105102381D02*
X133026191Y-106102381D01*
X132692857Y-105102381D01*
X131835714Y-106102381D02*
X132407143Y-106102381D01*
X132121429Y-106102381D02*
X132121429Y-105102381D01*
X132216667Y-105245238D01*
X132311905Y-105340476D01*
X132407143Y-105388095D01*
X166328095Y-101842381D02*
X166328095Y-100842381D01*
X165947142Y-100842381D01*
X165851904Y-100890000D01*
X165804285Y-100937619D01*
X165756666Y-101032857D01*
X165756666Y-101175714D01*
X165804285Y-101270952D01*
X165851904Y-101318571D01*
X165947142Y-101366190D01*
X166328095Y-101366190D01*
X164804285Y-101842381D02*
X165375714Y-101842381D01*
X165090000Y-101842381D02*
X165090000Y-100842381D01*
X165185238Y-100985238D01*
X165280476Y-101080476D01*
X165375714Y-101128095D01*
M02*
