G04 #@! TF.FileFunction,Soldermask,Top*
%FSLAX46Y46*%
G04 Gerber Fmt 4.6, Leading zero omitted, Abs format (unit mm)*
G04 Created by KiCad (PCBNEW 4.0.7) date Tuesday, 26 September 2017 'PMt' 23:25:46*
%MOMM*%
%LPD*%
G01*
G04 APERTURE LIST*
%ADD10C,0.100000*%
G04 APERTURE END LIST*
D10*
G36*
X124273306Y-116751097D02*
X124590281Y-116816163D01*
X124888577Y-116941554D01*
X125156839Y-117122499D01*
X125384848Y-117352106D01*
X125563916Y-117621623D01*
X125687222Y-117920787D01*
X125750005Y-118237865D01*
X125750005Y-118237875D01*
X125750071Y-118238209D01*
X125744910Y-118607800D01*
X125744834Y-118608134D01*
X125744834Y-118608146D01*
X125673225Y-118923340D01*
X125541611Y-119218948D01*
X125355089Y-119483361D01*
X125120755Y-119706513D01*
X124847550Y-119879894D01*
X124545865Y-119996911D01*
X124227201Y-120053099D01*
X123903690Y-120046323D01*
X123587650Y-119976837D01*
X123291135Y-119847293D01*
X123025427Y-119662621D01*
X122800645Y-119429853D01*
X122625361Y-119157865D01*
X122506242Y-118857005D01*
X122447828Y-118538734D01*
X122452347Y-118215185D01*
X122519622Y-117898677D01*
X122647096Y-117601259D01*
X122829909Y-117334267D01*
X123061101Y-117107867D01*
X123331862Y-116930686D01*
X123631882Y-116809470D01*
X123949729Y-116748837D01*
X124273306Y-116751097D01*
X124273306Y-116751097D01*
G37*
G36*
X165673306Y-116751097D02*
X165990281Y-116816163D01*
X166288577Y-116941554D01*
X166556839Y-117122499D01*
X166784848Y-117352106D01*
X166963916Y-117621623D01*
X167087222Y-117920787D01*
X167150005Y-118237865D01*
X167150005Y-118237875D01*
X167150071Y-118238209D01*
X167144910Y-118607800D01*
X167144834Y-118608134D01*
X167144834Y-118608146D01*
X167073225Y-118923340D01*
X166941611Y-119218948D01*
X166755089Y-119483361D01*
X166520755Y-119706513D01*
X166247550Y-119879894D01*
X165945865Y-119996911D01*
X165627201Y-120053099D01*
X165303690Y-120046323D01*
X164987650Y-119976837D01*
X164691135Y-119847293D01*
X164425427Y-119662621D01*
X164200645Y-119429853D01*
X164025361Y-119157865D01*
X163906242Y-118857005D01*
X163847828Y-118538734D01*
X163852347Y-118215185D01*
X163919622Y-117898677D01*
X164047096Y-117601259D01*
X164229909Y-117334267D01*
X164461101Y-117107867D01*
X164731862Y-116930686D01*
X165031882Y-116809470D01*
X165349729Y-116748837D01*
X165673306Y-116751097D01*
X165673306Y-116751097D01*
G37*
G36*
X156450000Y-113425000D02*
X155550000Y-113425000D01*
X155550000Y-112575000D01*
X156450000Y-112575000D01*
X156450000Y-113425000D01*
X156450000Y-113425000D01*
G37*
G36*
X154950000Y-113425000D02*
X154050000Y-113425000D01*
X154050000Y-112575000D01*
X154950000Y-112575000D01*
X154950000Y-113425000D01*
X154950000Y-113425000D01*
G37*
G36*
X128612803Y-110201030D02*
X128910567Y-110262153D01*
X129190784Y-110379945D01*
X129442788Y-110549923D01*
X129656979Y-110765615D01*
X129825194Y-111018798D01*
X129941027Y-111299830D01*
X130000001Y-111597671D01*
X130000001Y-111597681D01*
X130000067Y-111598015D01*
X129995219Y-111945207D01*
X129995142Y-111945545D01*
X129995142Y-111945553D01*
X129927878Y-112241622D01*
X129804241Y-112519315D01*
X129629023Y-112767703D01*
X129408891Y-112977331D01*
X129152244Y-113140204D01*
X128868843Y-113250129D01*
X128569492Y-113302912D01*
X128265588Y-113296546D01*
X127968703Y-113231272D01*
X127690161Y-113109579D01*
X127440549Y-112936095D01*
X127229394Y-112717437D01*
X127064733Y-112461934D01*
X126952833Y-112179308D01*
X126897960Y-111880325D01*
X126902205Y-111576385D01*
X126965402Y-111279061D01*
X127085151Y-110999667D01*
X127256884Y-110748857D01*
X127474065Y-110536178D01*
X127728416Y-110369735D01*
X128010253Y-110255866D01*
X128308836Y-110198908D01*
X128612803Y-110201030D01*
X128612803Y-110201030D01*
G37*
G36*
X143225000Y-112825000D02*
X132325000Y-112825000D01*
X132325000Y-103325000D01*
X143225000Y-103325000D01*
X143225000Y-112825000D01*
X143225000Y-112825000D01*
G37*
G36*
X148300000Y-112750000D02*
X147700000Y-112750000D01*
X147700000Y-111750000D01*
X148300000Y-111750000D01*
X148300000Y-112750000D01*
X148300000Y-112750000D01*
G37*
G36*
X146800000Y-112750000D02*
X146200000Y-112750000D01*
X146200000Y-111750000D01*
X146800000Y-111750000D01*
X146800000Y-112750000D01*
X146800000Y-112750000D01*
G37*
G36*
X156575000Y-111600000D02*
X154925000Y-111600000D01*
X154925000Y-110900000D01*
X156575000Y-110900000D01*
X156575000Y-111600000D01*
X156575000Y-111600000D01*
G37*
G36*
X151175000Y-111600000D02*
X149525000Y-111600000D01*
X149525000Y-110900000D01*
X151175000Y-110900000D01*
X151175000Y-111600000D01*
X151175000Y-111600000D01*
G37*
G36*
X147900000Y-111150000D02*
X146600000Y-111150000D01*
X146600000Y-110150000D01*
X147900000Y-110150000D01*
X147900000Y-111150000D01*
X147900000Y-111150000D01*
G37*
G36*
X123210286Y-108250698D02*
X123411998Y-108292104D01*
X123601821Y-108371898D01*
X123772534Y-108487045D01*
X123917631Y-108633159D01*
X124031583Y-108804670D01*
X124110050Y-108995046D01*
X124149979Y-109196698D01*
X124149979Y-109196703D01*
X124150046Y-109197042D01*
X124146761Y-109432237D01*
X124146684Y-109432575D01*
X124146684Y-109432583D01*
X124101144Y-109633034D01*
X124017389Y-109821149D01*
X123898693Y-109989411D01*
X123749570Y-110131419D01*
X123575714Y-110241751D01*
X123383732Y-110316217D01*
X123180947Y-110351972D01*
X122975076Y-110347661D01*
X122773958Y-110303442D01*
X122585268Y-110221005D01*
X122416181Y-110103486D01*
X122273137Y-109955360D01*
X122161594Y-109782278D01*
X122085790Y-109590822D01*
X122048618Y-109388284D01*
X122051493Y-109182390D01*
X122094304Y-108980977D01*
X122175425Y-108791710D01*
X122291760Y-108621807D01*
X122438883Y-108477733D01*
X122611185Y-108364982D01*
X122802107Y-108287844D01*
X123004372Y-108249260D01*
X123210286Y-108250698D01*
X123210286Y-108250698D01*
G37*
G36*
X166710286Y-108250698D02*
X166911998Y-108292104D01*
X167101821Y-108371898D01*
X167272534Y-108487045D01*
X167417631Y-108633159D01*
X167531583Y-108804670D01*
X167610050Y-108995046D01*
X167649979Y-109196698D01*
X167649979Y-109196703D01*
X167650046Y-109197042D01*
X167646761Y-109432237D01*
X167646684Y-109432575D01*
X167646684Y-109432583D01*
X167601144Y-109633034D01*
X167517389Y-109821149D01*
X167398693Y-109989411D01*
X167249570Y-110131419D01*
X167075714Y-110241751D01*
X166883732Y-110316217D01*
X166680947Y-110351972D01*
X166475076Y-110347661D01*
X166273958Y-110303442D01*
X166085268Y-110221005D01*
X165916181Y-110103486D01*
X165773137Y-109955360D01*
X165661594Y-109782278D01*
X165585790Y-109590822D01*
X165548618Y-109388284D01*
X165551493Y-109182390D01*
X165594304Y-108980977D01*
X165675425Y-108791710D01*
X165791760Y-108621807D01*
X165938883Y-108477733D01*
X166111185Y-108364982D01*
X166302107Y-108287844D01*
X166504372Y-108249260D01*
X166710286Y-108250698D01*
X166710286Y-108250698D01*
G37*
G36*
X151175000Y-110330000D02*
X149525000Y-110330000D01*
X149525000Y-109630000D01*
X151175000Y-109630000D01*
X151175000Y-110330000D01*
X151175000Y-110330000D01*
G37*
G36*
X156575000Y-110330000D02*
X154925000Y-110330000D01*
X154925000Y-109630000D01*
X156575000Y-109630000D01*
X156575000Y-110330000D01*
X156575000Y-110330000D01*
G37*
G36*
X156575000Y-109060000D02*
X154925000Y-109060000D01*
X154925000Y-108360000D01*
X156575000Y-108360000D01*
X156575000Y-109060000D01*
X156575000Y-109060000D01*
G37*
G36*
X151175000Y-109060000D02*
X149525000Y-109060000D01*
X149525000Y-108360000D01*
X151175000Y-108360000D01*
X151175000Y-109060000D01*
X151175000Y-109060000D01*
G37*
G36*
X147900000Y-107850000D02*
X146600000Y-107850000D01*
X146600000Y-106850000D01*
X147900000Y-106850000D01*
X147900000Y-107850000D01*
X147900000Y-107850000D01*
G37*
G36*
X151175000Y-107790000D02*
X149525000Y-107790000D01*
X149525000Y-107090000D01*
X151175000Y-107090000D01*
X151175000Y-107790000D01*
X151175000Y-107790000D01*
G37*
G36*
X156575000Y-107790000D02*
X154925000Y-107790000D01*
X154925000Y-107090000D01*
X156575000Y-107090000D01*
X156575000Y-107790000D01*
X156575000Y-107790000D01*
G37*
G36*
X123210286Y-104750698D02*
X123411998Y-104792104D01*
X123601821Y-104871898D01*
X123772534Y-104987045D01*
X123917631Y-105133159D01*
X124031583Y-105304670D01*
X124110050Y-105495046D01*
X124149979Y-105696698D01*
X124149979Y-105696703D01*
X124150046Y-105697042D01*
X124146761Y-105932237D01*
X124146684Y-105932575D01*
X124146684Y-105932583D01*
X124101144Y-106133034D01*
X124017389Y-106321149D01*
X123898693Y-106489411D01*
X123749570Y-106631419D01*
X123575714Y-106741751D01*
X123383732Y-106816217D01*
X123180947Y-106851972D01*
X122975076Y-106847661D01*
X122773958Y-106803442D01*
X122585268Y-106721005D01*
X122416181Y-106603486D01*
X122273137Y-106455360D01*
X122161594Y-106282278D01*
X122085790Y-106090822D01*
X122048618Y-105888284D01*
X122051493Y-105682390D01*
X122094304Y-105480977D01*
X122175425Y-105291710D01*
X122291760Y-105121807D01*
X122438883Y-104977733D01*
X122611185Y-104864982D01*
X122802107Y-104787844D01*
X123004372Y-104749260D01*
X123210286Y-104750698D01*
X123210286Y-104750698D01*
G37*
G36*
X154700000Y-106425000D02*
X153800000Y-106425000D01*
X153800000Y-105575000D01*
X154700000Y-105575000D01*
X154700000Y-106425000D01*
X154700000Y-106425000D01*
G37*
G36*
X156200000Y-106425000D02*
X155300000Y-106425000D01*
X155300000Y-105575000D01*
X156200000Y-105575000D01*
X156200000Y-106425000D01*
X156200000Y-106425000D01*
G37*
G36*
X147675000Y-105950000D02*
X146825000Y-105950000D01*
X146825000Y-105050000D01*
X147675000Y-105050000D01*
X147675000Y-105950000D01*
X147675000Y-105950000D01*
G37*
G36*
X156200000Y-104925000D02*
X155300000Y-104925000D01*
X155300000Y-104075000D01*
X156200000Y-104075000D01*
X156200000Y-104925000D01*
X156200000Y-104925000D01*
G37*
G36*
X154700000Y-104925000D02*
X153800000Y-104925000D01*
X153800000Y-104075000D01*
X154700000Y-104075000D01*
X154700000Y-104925000D01*
X154700000Y-104925000D01*
G37*
G36*
X127412803Y-101801030D02*
X127710567Y-101862153D01*
X127990784Y-101979945D01*
X128242788Y-102149923D01*
X128456979Y-102365615D01*
X128625194Y-102618798D01*
X128741027Y-102899830D01*
X128800001Y-103197671D01*
X128800001Y-103197681D01*
X128800067Y-103198015D01*
X128795219Y-103545207D01*
X128795142Y-103545545D01*
X128795142Y-103545553D01*
X128727878Y-103841622D01*
X128604241Y-104119315D01*
X128429023Y-104367703D01*
X128208891Y-104577331D01*
X127952244Y-104740204D01*
X127668843Y-104850129D01*
X127369492Y-104902912D01*
X127065588Y-104896546D01*
X126768703Y-104831272D01*
X126490161Y-104709579D01*
X126240549Y-104536095D01*
X126029394Y-104317437D01*
X125864733Y-104061934D01*
X125752833Y-103779308D01*
X125697960Y-103480325D01*
X125702205Y-103176385D01*
X125765402Y-102879061D01*
X125885151Y-102599667D01*
X126056884Y-102348857D01*
X126274065Y-102136178D01*
X126528416Y-101969735D01*
X126810253Y-101855866D01*
X127108836Y-101798908D01*
X127412803Y-101801030D01*
X127412803Y-101801030D01*
G37*
G36*
X151800000Y-104750000D02*
X151200000Y-104750000D01*
X151200000Y-103750000D01*
X151800000Y-103750000D01*
X151800000Y-104750000D01*
X151800000Y-104750000D01*
G37*
G36*
X150300000Y-104750000D02*
X149700000Y-104750000D01*
X149700000Y-103750000D01*
X150300000Y-103750000D01*
X150300000Y-104750000D01*
X150300000Y-104750000D01*
G37*
G36*
X147675000Y-104450000D02*
X146825000Y-104450000D01*
X146825000Y-103550000D01*
X147675000Y-103550000D01*
X147675000Y-104450000D01*
X147675000Y-104450000D01*
G37*
G36*
X135835000Y-101275000D02*
X134635000Y-101275000D01*
X134635000Y-96575000D01*
X135835000Y-96575000D01*
X135835000Y-101275000D01*
X135835000Y-101275000D01*
G37*
G36*
X140915000Y-101275000D02*
X139715000Y-101275000D01*
X139715000Y-96575000D01*
X140915000Y-96575000D01*
X140915000Y-101275000D01*
X140915000Y-101275000D01*
G37*
G36*
X123110286Y-98050698D02*
X123311998Y-98092104D01*
X123501821Y-98171898D01*
X123672534Y-98287045D01*
X123817631Y-98433159D01*
X123931583Y-98604670D01*
X124010050Y-98795046D01*
X124049979Y-98996698D01*
X124049979Y-98996703D01*
X124050046Y-98997042D01*
X124046761Y-99232237D01*
X124046684Y-99232575D01*
X124046684Y-99232583D01*
X124001144Y-99433034D01*
X123917389Y-99621149D01*
X123798693Y-99789411D01*
X123649570Y-99931419D01*
X123475714Y-100041751D01*
X123283732Y-100116217D01*
X123080947Y-100151972D01*
X122875076Y-100147661D01*
X122673958Y-100103442D01*
X122485268Y-100021005D01*
X122316181Y-99903486D01*
X122173137Y-99755360D01*
X122061594Y-99582278D01*
X121985790Y-99390822D01*
X121948618Y-99188284D01*
X121951493Y-98982390D01*
X121994304Y-98780977D01*
X122075425Y-98591710D01*
X122191760Y-98421807D01*
X122338883Y-98277733D01*
X122511185Y-98164982D01*
X122702107Y-98087844D01*
X122904372Y-98049260D01*
X123110286Y-98050698D01*
X123110286Y-98050698D01*
G37*
G36*
X167110286Y-98050698D02*
X167311998Y-98092104D01*
X167501821Y-98171898D01*
X167672534Y-98287045D01*
X167817631Y-98433159D01*
X167931583Y-98604670D01*
X168010050Y-98795046D01*
X168049979Y-98996698D01*
X168049979Y-98996703D01*
X168050046Y-98997042D01*
X168046761Y-99232237D01*
X168046684Y-99232575D01*
X168046684Y-99232583D01*
X168001144Y-99433034D01*
X167917389Y-99621149D01*
X167798693Y-99789411D01*
X167649570Y-99931419D01*
X167475714Y-100041751D01*
X167283732Y-100116217D01*
X167080947Y-100151972D01*
X166875076Y-100147661D01*
X166673958Y-100103442D01*
X166485268Y-100021005D01*
X166316181Y-99903486D01*
X166173137Y-99755360D01*
X166061594Y-99582278D01*
X165985790Y-99390822D01*
X165948618Y-99188284D01*
X165951493Y-98982390D01*
X165994304Y-98780977D01*
X166075425Y-98591710D01*
X166191760Y-98421807D01*
X166338883Y-98277733D01*
X166511185Y-98164982D01*
X166702107Y-98087844D01*
X166904372Y-98049260D01*
X167110286Y-98050698D01*
X167110286Y-98050698D01*
G37*
G36*
X163160286Y-97800698D02*
X163361998Y-97842104D01*
X163551821Y-97921898D01*
X163722534Y-98037045D01*
X163867631Y-98183159D01*
X163981583Y-98354670D01*
X164060050Y-98545046D01*
X164099979Y-98746698D01*
X164099979Y-98746703D01*
X164100046Y-98747042D01*
X164096761Y-98982237D01*
X164096684Y-98982575D01*
X164096684Y-98982583D01*
X164051144Y-99183034D01*
X163967389Y-99371149D01*
X163848693Y-99539411D01*
X163699570Y-99681419D01*
X163525714Y-99791751D01*
X163333732Y-99866217D01*
X163130947Y-99901972D01*
X162925076Y-99897661D01*
X162723958Y-99853442D01*
X162535268Y-99771005D01*
X162366181Y-99653486D01*
X162223137Y-99505360D01*
X162111594Y-99332278D01*
X162035790Y-99140822D01*
X161998618Y-98938284D01*
X162001493Y-98732390D01*
X162044304Y-98530977D01*
X162125425Y-98341710D01*
X162241760Y-98171807D01*
X162388883Y-98027733D01*
X162561185Y-97914982D01*
X162752107Y-97837844D01*
X162954372Y-97799260D01*
X163160286Y-97800698D01*
X163160286Y-97800698D01*
G37*
G36*
X127750000Y-99840000D02*
X125650000Y-99840000D01*
X125650000Y-97740000D01*
X127750000Y-97740000D01*
X127750000Y-99840000D01*
X127750000Y-99840000D01*
G37*
G36*
X151223306Y-95151097D02*
X151540281Y-95216163D01*
X151838577Y-95341554D01*
X152106839Y-95522499D01*
X152334848Y-95752106D01*
X152513916Y-96021623D01*
X152637222Y-96320787D01*
X152700005Y-96637865D01*
X152700005Y-96637875D01*
X152700071Y-96638209D01*
X152694910Y-97007800D01*
X152694834Y-97008134D01*
X152694834Y-97008146D01*
X152623225Y-97323340D01*
X152491611Y-97618948D01*
X152305089Y-97883361D01*
X152070755Y-98106513D01*
X151797550Y-98279894D01*
X151495865Y-98396911D01*
X151177201Y-98453099D01*
X150853690Y-98446323D01*
X150537650Y-98376837D01*
X150241135Y-98247293D01*
X149975427Y-98062621D01*
X149750645Y-97829853D01*
X149575361Y-97557865D01*
X149456242Y-97257005D01*
X149397828Y-96938734D01*
X149402347Y-96615185D01*
X149469622Y-96298677D01*
X149597096Y-96001259D01*
X149779909Y-95734267D01*
X150011101Y-95507867D01*
X150281862Y-95330686D01*
X150581882Y-95209470D01*
X150899729Y-95148837D01*
X151223306Y-95151097D01*
X151223306Y-95151097D01*
G37*
G36*
X164100000Y-97360000D02*
X162000000Y-97360000D01*
X162000000Y-95260000D01*
X164100000Y-95260000D01*
X164100000Y-97360000D01*
X164100000Y-97360000D01*
G37*
G36*
X126810286Y-95200698D02*
X127011998Y-95242104D01*
X127201821Y-95321898D01*
X127372534Y-95437045D01*
X127517631Y-95583159D01*
X127631583Y-95754670D01*
X127710050Y-95945046D01*
X127749979Y-96146698D01*
X127749979Y-96146703D01*
X127750046Y-96147042D01*
X127746761Y-96382237D01*
X127746684Y-96382575D01*
X127746684Y-96382583D01*
X127701144Y-96583034D01*
X127617389Y-96771149D01*
X127498693Y-96939411D01*
X127349570Y-97081419D01*
X127175714Y-97191751D01*
X126983732Y-97266217D01*
X126780947Y-97301972D01*
X126575076Y-97297661D01*
X126373958Y-97253442D01*
X126185268Y-97171005D01*
X126016181Y-97053486D01*
X125873137Y-96905360D01*
X125761594Y-96732278D01*
X125685790Y-96540822D01*
X125648618Y-96338284D01*
X125651493Y-96132390D01*
X125694304Y-95930977D01*
X125775425Y-95741710D01*
X125891760Y-95571807D01*
X126038883Y-95427733D01*
X126211185Y-95314982D01*
X126402107Y-95237844D01*
X126604372Y-95199260D01*
X126810286Y-95200698D01*
X126810286Y-95200698D01*
G37*
G36*
X167110286Y-94950698D02*
X167311998Y-94992104D01*
X167501821Y-95071898D01*
X167672534Y-95187045D01*
X167817631Y-95333159D01*
X167931583Y-95504670D01*
X168010050Y-95695046D01*
X168049979Y-95896698D01*
X168049979Y-95896703D01*
X168050046Y-95897042D01*
X168046761Y-96132237D01*
X168046684Y-96132575D01*
X168046684Y-96132583D01*
X168001144Y-96333034D01*
X167917389Y-96521149D01*
X167798693Y-96689411D01*
X167649570Y-96831419D01*
X167475714Y-96941751D01*
X167283732Y-97016217D01*
X167080947Y-97051972D01*
X166875076Y-97047661D01*
X166673958Y-97003442D01*
X166485268Y-96921005D01*
X166316181Y-96803486D01*
X166173137Y-96655360D01*
X166061594Y-96482278D01*
X165985790Y-96290822D01*
X165948618Y-96088284D01*
X165951493Y-95882390D01*
X165994304Y-95680977D01*
X166075425Y-95491710D01*
X166191760Y-95321807D01*
X166338883Y-95177733D01*
X166511185Y-95064982D01*
X166702107Y-94987844D01*
X166904372Y-94949260D01*
X167110286Y-94950698D01*
X167110286Y-94950698D01*
G37*
G36*
X123110286Y-94950698D02*
X123311998Y-94992104D01*
X123501821Y-95071898D01*
X123672534Y-95187045D01*
X123817631Y-95333159D01*
X123931583Y-95504670D01*
X124010050Y-95695046D01*
X124049979Y-95896698D01*
X124049979Y-95896703D01*
X124050046Y-95897042D01*
X124046761Y-96132237D01*
X124046684Y-96132575D01*
X124046684Y-96132583D01*
X124001144Y-96333034D01*
X123917389Y-96521149D01*
X123798693Y-96689411D01*
X123649570Y-96831419D01*
X123475714Y-96941751D01*
X123283732Y-97016217D01*
X123080947Y-97051972D01*
X122875076Y-97047661D01*
X122673958Y-97003442D01*
X122485268Y-96921005D01*
X122316181Y-96803486D01*
X122173137Y-96655360D01*
X122061594Y-96482278D01*
X121985790Y-96290822D01*
X121948618Y-96088284D01*
X121951493Y-95882390D01*
X121994304Y-95680977D01*
X122075425Y-95491710D01*
X122191760Y-95321807D01*
X122338883Y-95177733D01*
X122511185Y-95064982D01*
X122702107Y-94987844D01*
X122904372Y-94949260D01*
X123110286Y-94950698D01*
X123110286Y-94950698D01*
G37*
M02*
